<svg width="32" height="32" viewBox="0 0 32 32" fill="none" xmlns="http://www.w3.org/2000/svg">
  <rect width="32" height="32" rx="6" fill="#f59e0b"/>
  <path d="M8 12c0-2.2 1.8-4 4-4h8c2.2 0 4 1.8 4 4v8c0 2.2-1.8 4-4 4h-8c-2.2 0-4-1.8-4-4v-8z" fill="#fbbf24"/>
  <circle cx="14" cy="14" r="2" fill="#1f2937"/>
  <circle cx="20" cy="14" r="2" fill="#1f2937"/>
  <path d="M12 20c0-2.2 1.8-4 4-4s4 1.8 4 4" stroke="#1f2937" stroke-width="2" stroke-linecap="round" fill="none"/>
  <path d="M10 10l2 2M22 10l-2 2" stroke="#1f2937" stroke-width="1.5" stroke-linecap="round"/>
</svg>